<svg xmlns="http://www.w3.org/2000/svg" version="1.1" xmlns:xlink="http://www.w3.org/1999/xlink" xmlns:svgjs="http://svgjs.dev/svgjs" width="1500" height="1500" viewBox="0 0 1500 1500"><rect width="1500" height="1500" fill="#000000"></rect><g transform="matrix(0.6666666666666666,0,0,0.6666666666666666,249.39393939393938,438.5856950067477)"><svg viewBox="0 0 396 247" data-background-color="#ffffff" preserveAspectRatio="xMidYMid meet" height="935" width="1500" xmlns="http://www.w3.org/2000/svg" xmlns:xlink="http://www.w3.org/1999/xlink"><g id="tight-bounds" transform="matrix(1,0,0,1,0.2400000000000091,-0.09999999999999432)"><svg viewBox="0 0 395.52 247.2" height="247.2" width="395.52"><g><svg></svg></g><g><svg viewBox="0 0 395.52 247.2" height="247.2" width="395.52"><g transform="matrix(1,0,0,1,75.54432,81.75714959018333)"><svg viewBox="0 0 244.43135999999998 83.68570081963333" height="83.68570081963333" width="244.43135999999998"><g><svg viewBox="0 0 244.43135999999998 83.68570081963333" height="83.68570081963333" width="244.43135999999998"><g><svg viewBox="0 0 244.43135999999998 83.68570081963333" height="83.68570081963333" width="244.43135999999998"><g><svg viewBox="0 0 244.43135999999998 83.68570081963333" height="83.68570081963333" width="244.43135999999998"><g id="textblocktransform"><svg viewBox="0 0 244.43135999999998 83.68570081963333" height="83.68570081963333" width="244.43135999999998" id="textblock"><g><svg viewBox="0 0 244.43135999999998 45.92220256191289" height="45.92220256191289" width="244.43135999999998"><g transform="matrix(1,0,0,1,0,0)"><svg width="244.43135999999998" viewBox="2.4499999999999997 -32.35 175.63000000000002 33.00000000000001" height="45.92220256191289" data-palette-color="#b6a522"><path d="M11.6 0.65L11.6 0.65Q8.2 0.65 6.35-0.1 4.5-0.85 3.8-2.2 3.1-3.55 3.1-5.4L3.1-5.4Q3.1-6.3 3.25-7.43 3.4-8.55 3.6-10L3.6-10Q4.5-15.5 4.5-19.75L4.5-19.75Q4.5-22.55 4.28-24.53 4.05-26.5 2.95-28.3L2.95-28.3Q2.75-28.6 2.6-28.93 2.45-29.25 2.45-29.45L2.45-29.45Q2.45-30.05 3.15-30.7 3.85-31.35 4.85-31.8 5.85-32.25 6.75-32.25L6.75-32.25Q8.45-32.25 8.88-30.9 9.3-29.55 9.3-27.05L9.3-27.05Q9.3-26.1 9.1-24.03 8.9-21.95 8.5-18.75L8.5-18.75Q8.1-15.65 7.9-13.4 7.7-11.15 7.7-9.8L7.7-9.8Q7.7-7.8 8.18-6.78 8.65-5.75 9.75-5.35L9.75-5.35Q10.85-4.95 12.85-4.95L12.85-4.95Q15-4.95 16.95-5.33 18.9-5.7 20.75-6.5L20.75-6.5Q21-6.6 21.2-6.65 21.4-6.7 21.55-6.7L21.55-6.7Q22-6.7 22.4-6.15 22.8-5.6 22.8-4.6L22.8-4.6Q22.8-2.4 20.4-1.15L20.4-1.15Q17.2 0.65 11.6 0.65ZM30.9 0.65L30.9 0.65Q27.9 0.65 26.07-1.23 24.25-3.1 24.25-6.6L24.25-6.6Q24.25-9.1 25.22-11.58 26.2-14.05 28.05-16.05 29.9-18.05 32.5-19.25 35.1-20.45 38.35-20.45L38.35-20.45Q41.35-20.45 43.47-19.43 45.6-18.4 45.6-16.65L45.6-16.65Q45.6-16.2 45.5-15.48 45.4-14.75 45.25-14.3L45.25-14.3Q45.1-13.9 44.82-13.58 44.55-13.25 44.1-13.25L44.1-13.25Q43.9-13.25 43.35-13.4L43.35-13.4Q43.15-12.35 43.05-11.35 42.95-10.35 42.95-9.35L42.95-9.35Q42.95-7.45 43.52-5.98 44.1-4.5 45.8-4.15L45.8-4.15Q46.25-4.05 46.52-3.85 46.8-3.65 46.8-3L46.8-3Q46.8-2.45 46.52-1.6 46.25-0.75 45.47-0.08 44.7 0.6 43.25 0.6L43.25 0.6Q41.3 0.6 40.25-0.83 39.2-2.25 39.2-4.9L39.2-4.9Q37.85-2.45 35.77-0.9 33.7 0.65 30.9 0.65ZM32.5-4.55L32.5-4.55Q34.5-4.55 36.02-5.8 37.55-7.05 38.4-8.95L38.4-8.95Q38.95-10.15 39.25-11.58 39.55-13 39.65-14.4L39.65-14.4Q38.8-14.8 37.7-15.05 36.6-15.3 35.4-15.3L35.4-15.3Q32.35-15.3 30.37-13.5 28.4-11.7 28.4-9L28.4-9Q28.4-7 29.5-5.78 30.6-4.55 32.5-4.55ZM58.2 0.65L58.2 0.65Q56.35 0.65 54.8 0.3 53.25-0.05 52.25-1L52.25-1Q51.5-1.7 51.25-2.58 51-3.45 51-4.5L51-4.5Q51-6.2 51.3-7.9L51.3-7.9Q51.75-10.85 52.1-14.25 52.45-17.65 52.45-20.55L52.45-20.55Q52.45-21.45 52.37-22.6 52.3-23.75 52.15-24.75L52.15-24.75Q51.8-24.6 51.47-24.48 51.15-24.35 50.9-24.35L50.9-24.35Q50.45-24.35 50.3-24.8 50.15-25.25 50.15-25.8L50.15-25.8Q50.15-27.25 50.82-28.28 51.5-29.3 53.05-30.1L53.05-30.1Q54.7-31 57.37-31.68 60.05-32.35 62.8-32.35L62.8-32.35Q69.05-32.35 72.62-28.68 76.2-25 76.2-18.25L76.2-18.25Q76.2-14.4 75.02-10.98 73.84-7.55 71.55-4.93 69.25-2.3 65.9-0.83 62.55 0.65 58.2 0.65ZM59.8-4.95L59.8-4.95Q62.05-4.95 64.3-5.65 66.55-6.35 68.37-7.75 70.2-9.15 71.3-11.33 72.4-13.5 72.4-16.55L72.4-16.55Q72.4-20 71.05-22.25 69.7-24.5 67.45-25.6 65.2-26.7 62.45-26.7L62.45-26.7Q60.95-26.7 59.47-26.45 58-26.2 57.15-25.95L57.15-25.95Q57.1-23.65 56.87-21.48 56.65-19.3 56.35-17.25L56.35-17.25Q56.05-15.1 55.87-13.05 55.7-11 55.7-9L55.7-9Q55.7-6.5 56.72-5.73 57.75-4.95 59.8-4.95ZM87.99 0.65L87.99 0.65Q84.54 0.65 82.47-1.23 80.39-3.1 80.39-6.75L80.39-6.75Q80.39-8.45 80.87-10.05 81.34-11.65 82.14-13.05L82.14-13.05Q81.34-12.55 80.94-12.55L80.94-12.55Q80.34-12.55 80.12-13.23 79.89-13.9 79.89-14.55L79.89-14.55Q79.89-15.7 80.37-16.38 80.84-17.05 81.29-17.4L81.29-17.4Q82.34-18.3 84.59-19.38 86.84-20.45 89.99-20.45L89.99-20.45Q94.29-20.45 96.67-18.05 99.04-15.65 99.04-11.35L99.04-11.35Q99.04-8 97.64-5.28 96.24-2.55 93.77-0.95 91.29 0.65 87.99 0.65ZM89.54-4.45L89.54-4.45Q92.04-4.45 93.77-6.03 95.49-7.6 95.49-10.2L95.49-10.2Q95.49-12.9 93.74-14.05 91.99-15.2 89.69-15.2L89.69-15.2Q88.64-15.2 87.79-15 86.94-14.8 86.19-14.5L86.19-14.5Q85.49-13.5 84.94-12.25 84.39-11 84.39-9.5L84.39-9.5Q84.39-7 85.89-5.73 87.39-4.45 89.54-4.45ZM110.14 0.65L110.14 0.65Q106.64 0.65 104.67-1.48 102.69-3.6 102.69-7.4L102.69-7.4Q102.69-11.15 104.29-14.1 105.89-17.05 108.69-18.75 111.49-20.45 115.04-20.45L115.04-20.45Q117.44-20.45 118.84-19.65 120.24-18.85 120.24-17.45L120.24-17.45Q120.24-16.2 119.04-15L119.04-15Q118.59-14.55 117.87-14.18 117.14-13.8 116.74-13.8L116.74-13.8Q116.29-13.8 115.99-14.15L115.99-14.15Q115.49-14.7 114.69-15.2 113.89-15.7 112.44-15.7L112.44-15.7Q109.99-15.7 108.44-14.03 106.89-12.35 106.89-9.65L106.89-9.65Q106.89-7.2 108.29-5.7 109.69-4.2 111.99-4.2L111.99-4.2Q113.19-4.2 114.62-4.63 116.04-5.05 117.14-5.85L117.14-5.85Q117.69-6.35 118.29-6.35L118.29-6.35Q119.29-6.35 119.29-5.1L119.29-5.1Q119.29-3.45 117.64-1.95L117.64-1.95Q116.39-0.8 114.32-0.08 112.24 0.65 110.14 0.65ZM130.44 0.65L130.44 0.65Q127.39 0.65 126.06-1.38 124.74-3.4 124.74-6.6L124.74-6.6Q124.74-7.75 124.86-8.85 124.99-9.95 125.14-11.05L125.14-11.05Q125.29-12.15 125.44-13.2 125.59-14.25 125.69-15.2L125.69-15.2Q124.64-14.9 123.59-14.9L123.59-14.9Q122.49-14.9 122.49-15.8L122.49-15.8Q122.49-16.75 123.34-18.13 124.19-19.5 125.46-20.85 126.74-22.2 128.01-23.13 129.29-24.05 130.19-24.05L130.19-24.05Q131.29-24.05 131.29-22.15L131.29-22.15Q131.29-21.65 131.21-21.13 131.14-20.6 131.04-20.05L131.04-20.05Q131.99-20.25 132.96-20.4 133.94-20.55 134.84-20.55L134.84-20.55Q135.99-20.55 136.61-20.15 137.24-19.75 137.24-18.6L137.24-18.6Q137.24-17.4 136.66-16.2 136.09-15 135.39-15L135.39-15Q135.24-15 134.89-15.05 134.54-15.1 134.04-15.2L134.04-15.2Q133.39-15.35 132.39-15.5 131.39-15.65 129.99-15.65L129.99-15.65Q129.64-14.1 129.36-12.48 129.09-10.85 129.09-9.55L129.09-9.55Q129.09-6.65 130.54-5.6 131.99-4.55 134.74-4.55L134.74-4.55Q135.59-4.55 135.94-4.28 136.29-4 136.29-3.3L136.29-3.3Q136.29-1.65 134.59-0.5 132.89 0.65 130.44 0.65ZM147.79 0.65L147.79 0.65Q144.34 0.65 142.26-1.23 140.19-3.1 140.19-6.75L140.19-6.75Q140.19-8.45 140.66-10.05 141.14-11.65 141.94-13.05L141.94-13.05Q141.14-12.55 140.74-12.55L140.74-12.55Q140.14-12.55 139.91-13.23 139.69-13.9 139.69-14.55L139.69-14.55Q139.69-15.7 140.16-16.38 140.64-17.05 141.09-17.4L141.09-17.4Q142.14-18.3 144.39-19.38 146.64-20.45 149.79-20.45L149.79-20.45Q154.09-20.45 156.46-18.05 158.84-15.65 158.84-11.35L158.84-11.35Q158.84-8 157.44-5.28 156.04-2.55 153.56-0.95 151.09 0.65 147.79 0.65ZM149.34-4.45L149.34-4.45Q151.84-4.45 153.56-6.03 155.29-7.6 155.29-10.2L155.29-10.2Q155.29-12.9 153.54-14.05 151.79-15.2 149.49-15.2L149.49-15.2Q148.44-15.2 147.59-15 146.74-14.8 145.99-14.5L145.99-14.5Q145.29-13.5 144.74-12.25 144.19-11 144.19-9.5L144.19-9.5Q144.19-7 145.69-5.73 147.19-4.45 149.34-4.45ZM165.68 0.55L165.68 0.55Q164.88 0.55 164.41 0.28 163.93 0 164.08-0.65L164.08-0.65Q164.63-2.8 165.01-5.03 165.38-7.25 165.38-9.3L165.38-9.3Q165.38-11.95 165.06-13.18 164.73-14.4 164.18-14.88 163.63-15.35 162.83-15.6L162.83-15.6Q162.48-15.75 162.21-16 161.93-16.25 161.93-16.7L161.93-16.7Q161.93-17.4 162.48-18.25 163.03-19.1 164.03-19.73 165.03-20.35 166.33-20.35L166.33-20.35Q168.03-20.35 168.71-19.18 169.38-18 169.38-16.1L169.38-16.1Q170.28-18.1 171.61-19.28 172.93-20.45 174.93-20.45L174.93-20.45Q176.28-20.45 177.18-19.85 178.08-19.25 178.08-17.9L178.08-17.9Q178.08-16.55 177.21-15.38 176.33-14.2 175.43-14.2L175.43-14.2Q175.28-14.2 175.08-14.25 174.88-14.3 174.73-14.5L174.73-14.5Q174.08-15.3 173.13-15.3L173.13-15.3Q171.68-15.3 170.58-13.4 169.48-11.5 169.38-8.15L169.38-8.15Q169.43-6.9 169.46-5.6 169.48-4.3 169.48-3.7L169.48-3.7Q169.48-1.85 168.46-0.65 167.43 0.55 165.68 0.55Z" opacity="1" transform="matrix(1,0,0,1,0,0)" fill="#ffffff" class="wordmark-text-0" data-fill-palette-color="primary" id="text-0"></path></svg></g></svg></g><g transform="matrix(1,0,0,1,0,56.763332453919034)"><svg viewBox="0 0 244.43135999999998 26.92236836571428" height="26.92236836571428" width="244.43135999999998"><g transform="matrix(1,0,0,1,0,0)"><svg width="244.43135999999998" viewBox="1.25 -36.84 341.79 37.650000000000006" height="26.92236836571428" data-palette-color="#b6a522"><path d="M34.59-33.54L34.59-31.4 31.81-31.2Q31.27-31.18 31.02-30.82 30.76-30.47 30.76-30.1L30.76-30.1 30.76 0 26.86 0 8.25-28 8.25-3.44Q8.25-3.08 8.51-2.73 8.76-2.39 9.3-2.34L9.3-2.34 12.16-2.15 12.16 0 1.34 0 1.34-2.15 4.2-2.34Q4.74-2.39 5.02-2.73 5.3-3.08 5.3-3.44L5.3-3.44 5.3-30.1Q5.3-30.47 5.02-30.82 4.74-31.18 4.2-31.2L4.2-31.2 1.25-31.4 1.25-33.54 11.16-33.54 11.16-32.3 27.81-7.15 27.81-30.1Q27.81-30.47 27.54-30.82 27.27-31.18 26.76-31.2L26.76-31.2 23.9-31.4 23.9-33.54 34.59-33.54ZM58.86-5.54L58.86-2.49Q56.76-1.2 54.33-0.29 51.9 0.61 49.37 0.61L49.37 0.61Q46.34 0.61 43.69-0.74 41.04-2.1 39.4-4.86 37.77-7.62 37.77-11.79L37.77-11.79Q37.77-15.7 39.28-18.6 40.8-21.51 43.46-23.11 46.12-24.71 49.51-24.71L49.51-24.71Q54.17-24.71 56.52-21.81 58.86-18.92 58.86-14.45L58.86-14.45Q58.86-14.21 58.86-13.81 58.86-13.4 58.81-13.06L58.81-13.06 42.6-13.06Q42.6-11.16 43.01-9.27 43.41-7.37 44.36-5.83 45.31-4.3 46.92-3.37 48.54-2.44 50.95-2.44L50.95-2.44Q53.1-2.44 55.14-3.43 57.18-4.42 58.86-5.54L58.86-5.54ZM42.87-15.31L53.86-15.31 53.86-16.41Q53.86-18.87 52.67-20.56 51.49-22.24 49-22.24L49-22.24Q46.53-22.24 44.8-20.39 43.07-18.53 42.87-15.31L42.87-15.31ZM86.52-24.1L86.52-22.14 83.86-21.85 75.12 0 71.88 0 63.82-21.85 61.06-22.14 61.06-24.1 72.12-24.1 72.12-22.14 69.73-22Q68.92-21.92 68.92-21.19L68.92-21.19Q68.92-21.09 68.97-20.9L68.97-20.9 74.56-5.25 80.71-20.9Q80.79-21.04 80.79-21.22L80.79-21.22Q80.79-21.95 80.03-22L80.03-22 77.78-22.14 77.78-24.1 86.52-24.1ZM109.81-5.54L109.81-2.49Q107.71-1.2 105.29-0.29 102.86 0.61 100.32 0.61L100.32 0.61Q97.29 0.61 94.64-0.74 91.99-2.1 90.36-4.86 88.72-7.62 88.72-11.79L88.72-11.79Q88.72-15.7 90.23-18.6 91.75-21.51 94.41-23.11 97.07-24.71 100.46-24.71L100.46-24.71Q105.13-24.71 107.47-21.81 109.81-18.92 109.81-14.45L109.81-14.45Q109.81-14.21 109.81-13.81 109.81-13.4 109.77-13.06L109.77-13.06 93.55-13.06Q93.55-11.16 93.96-9.27 94.36-7.37 95.31-5.83 96.26-4.3 97.88-3.37 99.49-2.44 101.9-2.44L101.9-2.44Q104.05-2.44 106.09-3.43 108.13-4.42 109.81-5.54L109.81-5.54ZM93.82-15.31L104.81-15.31 104.81-16.41Q104.81-18.87 103.63-20.56 102.44-22.24 99.95-22.24L99.95-22.24Q97.49-22.24 95.75-20.39 94.02-18.53 93.82-15.31L93.82-15.31ZM130.57-23.95L130.57-18.99 128.61-18.99Q128.15-19.56 127.5-19.96 126.86-20.36 125.93-20.36L125.93-20.36Q124.73-20.36 123.47-19.53 122.22-18.7 120.92-17.26L120.92-17.26 120.92-3.2Q120.92-2.15 121.97-2.1L121.97-2.1 125.27-1.95 125.27 0 112.77 0 112.77-1.9 115.23-2.1Q115.67-2.15 115.98-2.44 116.28-2.73 116.28-3.2L116.28-3.2 116.28-20.56 112.67-20.56 112.67-22.19 118.87-24.1 120.92-24.1 120.92-19.65Q121.66-20.46 122.75-21.66 123.85-22.85 125.1-23.78 126.34-24.71 127.51-24.71L127.51-24.71Q128.3-24.71 129.2-24.46 130.1-24.22 130.57-23.95L130.57-23.95ZM187.08-16.21L187.08-14.04 184.55-13.79Q184.01-13.77 183.75-13.45 183.5-13.13 183.5-12.74L183.5-12.74 183.5-1.2Q183.5-1.2 181.99-0.7 180.49-0.2 178.1 0.31 175.71 0.81 173 0.81L173 0.81Q168.82 0.81 165.58-0.63 162.33-2.08 160.1-4.55 157.86-7.03 156.7-10.21 155.54-13.38 155.54-16.85L155.54-16.85Q155.54-22.09 157.73-26.04 159.91-29.98 163.98-32.17 168.04-34.35 173.63-34.35L173.63-34.35Q176.2-34.35 178.37-33.89 180.54-33.42 182.62-32.86L182.62-32.86 183.45-32.64 183.45-24.56 180.44-24.56 179.64-29.05Q179.57-29.49 179.27-29.8 178.98-30.1 178.64-30.25L178.64-30.25Q178.54-30.27 178.34-30.37L178.34-30.37Q177.59-30.71 176.31-31.13 175.02-31.54 173.44-31.54L173.44-31.54Q169.85-31.54 167.09-29.87 164.33-28.2 162.78-24.98 161.23-21.75 161.23-17.09L161.23-17.09Q161.23-9.89 164.71-5.94 168.19-2 174.05-2L174.05-2Q175.71-2 176.99-2.38 178.27-2.76 178.44-2.76L178.44-2.76 178.44-12.74Q178.44-13.13 178.19-13.45 177.93-13.77 177.39-13.79L177.39-13.79 174.05-14.04 174.05-16.21 187.08-16.21ZM211.13-5.54L211.13-2.49Q209.03-1.2 206.6-0.29 204.17 0.61 201.64 0.61L201.64 0.61Q198.61 0.61 195.96-0.74 193.31-2.1 191.67-4.86 190.04-7.62 190.04-11.79L190.04-11.79Q190.04-15.7 191.55-18.6 193.07-21.51 195.73-23.11 198.39-24.71 201.78-24.71L201.78-24.71Q206.45-24.71 208.79-21.81 211.13-18.92 211.13-14.45L211.13-14.45Q211.13-14.21 211.13-13.81 211.13-13.4 211.08-13.06L211.08-13.06 194.87-13.06Q194.87-11.16 195.28-9.27 195.68-7.37 196.63-5.83 197.58-4.3 199.19-3.37 200.81-2.44 203.22-2.44L203.22-2.44Q205.37-2.44 207.41-3.43 209.45-4.42 211.13-5.54L211.13-5.54ZM195.14-15.31L206.13-15.31 206.13-16.41Q206.13-18.87 204.94-20.56 203.76-22.24 201.27-22.24L201.27-22.24Q198.8-22.24 197.07-20.39 195.34-18.53 195.14-15.31L195.14-15.31ZM229.49-3.05L229.49-3.05 229.49-1.05Q229.49-1.05 228.55-0.63 227.61-0.22 226.09 0.2 224.56 0.61 222.75 0.61L222.75 0.61Q219.95 0.61 218.66-0.72 217.38-2.05 217.38-5L217.38-5 217.38-21.61 214.18-21.61 214.18-23.24 217.6-24.85 219.85-30.15 222.05-30.15 222.05-24.1 229.1-24.1 229.1-21.61 222.05-21.61 222.05-7.64Q222.05-4.66 223.05-3.43 224.05-2.2 226.05-2.2L226.05-2.2Q227.51-2.2 228.5-2.62 229.49-3.05 229.49-3.05ZM276.44-9.4L276.44-9.4Q276.44-6.88 275.09-4.54 273.73-2.2 270.81-0.7 267.9 0.81 263.18 0.81L263.18 0.81Q260.5 0.81 258.5 0.34 256.49-0.12 255.4-0.59 254.3-1.05 254.3-1.05L254.3-1.05 254.3-9.91 257.45-9.91 258.11-4.25Q258.15-3.96 258.42-3.61 258.69-3.27 258.94-3.15L258.94-3.15Q259.06-3.13 260.36-2.56 261.67-2 263.99-2L263.99-2Q267.19-2 269.26-3.56 271.34-5.13 271.34-7.91L271.34-7.91Q271.34-9.42 270.5-10.56 269.65-11.69 268.31-12.57 266.97-13.45 265.44-14.17 263.92-14.89 262.55-15.55L262.55-15.55Q260.5-16.53 258.74-17.64 256.98-18.75 255.91-20.39 254.83-22.02 254.83-24.56L254.83-24.56Q254.83-27.54 256.35-29.74 257.86-31.93 260.47-33.14 263.09-34.35 266.38-34.35L266.38-34.35Q269.07-34.35 271.12-33.83 273.17-33.3 274.76-32.79L274.76-32.79 275.2-32.64 275.2-24.85 272.34-24.85 271.58-29.64Q271.53-29.98 271.28-30.14 271.02-30.3 270.8-30.52L270.8-30.52Q270.61-30.66 269.59-31.15 268.58-31.64 266.46-31.64L266.46-31.64Q263.45-31.64 261.72-29.97 259.99-28.3 259.99-25.76L259.99-25.76Q259.99-23.46 261.78-21.95 263.57-20.43 266.94-19.14L266.94-19.14Q271.48-17.43 273.96-15.3 276.44-13.16 276.44-9.4ZM289.28-32.35L289.28-32.35Q289.28-31.08 288.4-30.16 287.52-29.25 286.25-29.25L286.25-29.25Q284.99-29.25 284.07-30.16 283.15-31.08 283.15-32.35L283.15-32.35Q283.15-33.64 284.07-34.52 284.99-35.4 286.25-35.4L286.25-35.4Q287.52-35.4 288.4-34.52 289.28-33.64 289.28-32.35ZM291.85-1.95L291.85 0 280.1 0 280.1-1.95 282.54-2.1Q283.59-2.17 283.59-3.2L283.59-3.2 283.59-21.04 280.15-21.04 280.15-22.8 286.25-24.71 288.23-24.71 288.23-3.2Q288.23-2.73 288.54-2.44 288.84-2.15 289.28-2.1L289.28-2.1 291.85-1.95ZM315.16-4.71L315.16-4.71 315.16-1.86Q313.48-0.95 311.36-0.17 309.25 0.61 306.71 0.61L306.71 0.61Q303.22 0.61 300.65-1.03 298.07-2.66 296.67-5.48 295.26-8.3 295.26-11.89L295.26-11.89Q295.26-16.09 296.94-18.95 298.61-21.8 301.35-23.25 304.1-24.71 307.3-24.71L307.3-24.71Q310.6-24.71 312.83-23.43 315.06-22.14 315.06-19.7L315.06-19.7Q315.06-18.24 314.15-17.49 313.23-16.75 312.11-16.75L312.11-16.75Q311.28-16.75 310.67-17.03 310.06-17.31 309.59-17.6L309.59-17.6 309.59-21.95Q308.45-22.61 307.5-22.61L307.5-22.61Q305.27-22.61 303.67-21.3 302.08-20 301.22-17.72 300.37-15.45 300.37-12.55L300.37-12.55Q300.37-9.79 301.29-7.51 302.22-5.22 304.06-3.88 305.91-2.54 308.64-2.54L308.64-2.54Q310.38-2.54 311.96-3.1 313.55-3.66 315.16-4.71ZM343.04-1.95L343.04 0 335.03 0 335.03-1.95 328.78-11.35 326-11.35 326-3.2Q326-2.17 327.05-2.1L327.05-2.1 329.2-1.95 329.2 0 317.85 0 317.85-1.95 320.29-2.1Q321.34-2.17 321.34-3.2L321.34-3.2 321.34-33.25 317.55-33.25 317.55-34.91 323.95-36.84 326-36.84 326-12.79 327-12.79 334.35-21.09Q334.45-21.22 334.45-21.41L334.45-21.41Q334.45-21.9 333.94-21.95L333.94-21.95 331.88-22.14 331.88-24.1 341.6-24.1 341.6-22.14 338.4-21.8 331.79-14.75 340.41-2.25 343.04-1.95Z" opacity="1" transform="matrix(1,0,0,1,0,0)" fill="#ffffff" class="slogan-text-1" data-fill-palette-color="secondary" id="text-1"></path></svg></g></svg></g></svg></g></svg></g></svg></g></svg></g></svg></g><g><path d="M0 123.6c0-68.262 55.338-123.6 123.6-123.6 51.522 0 95.681 31.524 114.242 76.337h-2.246c-18.439-43.641-61.641-74.266-111.996-74.266-67.119 0-121.529 54.411-121.529 121.529 0 67.119 54.411 121.529 121.529 121.529 50.355 0 93.557-30.625 111.996-74.266l2.246 0c-18.56 44.812-62.719 76.337-114.242 76.337-68.262 0-123.6-55.338-123.6-123.6z" fill="#ffffff" stroke="transparent" data-fill-palette-color="tertiary"></path></g></svg></g><defs></defs></svg><rect width="395.52" height="247.2" fill="none" stroke="none" visibility="hidden"></rect></g></svg></g></svg>